<!--?xml version="1.0" encoding="utf-8"?-->
<!-- Generator: Adobe Illustrator 25.2.3, SVG Export Plug-In . SVG Version: 6.00 Build 0)  -->
<svg version="1.1" id="Layer_1" xmlns="http://www.w3.org/2000/svg" xmlns:xlink="http://www.w3.org/1999/xlink" x="0px" y="0px" viewBox="0 0 645.85 90.52" style="" xml:space="preserve">
<style type="text/css">
	.st0{fill:none;stroke:#D7C661;stroke-width:3;stroke-miterlimit:10;}
</style>
<g>
	<path class="st0 VJqUrThS_0" d="M67.32,87.73H53.36L26.78,26.8L16.21,87.73H1.78L16.56,2.68h13.96L57.1,63.83L67.73,2.68H82.1L67.32,87.73z"></path>
	<path class="st0 VJqUrThS_1" d="M99.92,87.73H85.55l14.78-85.05h14.37L99.92,87.73z"></path>
	<path class="st0 VJqUrThS_2" d="M185.55,59.98c-1.44,8.88-5.43,15.96-11.97,21.23c-6.54,5.28-14.51,7.84-23.89,7.68
		c-5.41-0.12-10.15-1.4-14.22-3.85c-4.07-2.45-7.25-6.03-9.55-10.72c-2.3-4.69-3.58-10-3.86-15.92c-0.23-4.44,0.31-10.49,1.64-18.14
		c1.32-7.65,3.86-14.52,7.62-20.59c3.76-6.07,8.37-10.65,13.84-13.73c5.47-3.08,11.56-4.56,18.25-4.44
		c8.45,0.16,15.14,2.81,20.06,7.97c4.93,5.16,7.54,12.28,7.86,21.35h-14.31c-0.2-6.08-1.47-10.47-3.83-13.17
		c-2.36-2.71-5.85-4.12-10.48-4.23c-6.35-0.19-11.66,2.08-15.95,6.83c-4.28,4.75-7.17,11.65-8.65,20.72l-1.17,7.76l-0.53,5.95
		c-0.31,4.01-0.03,7.77,0.85,11.29c0.88,3.52,2.42,6.21,4.64,8.05c2.22,1.85,5.04,2.83,8.47,2.95c10.86,0.43,17.83-5.2,20.91-16.88
		L185.55,59.98z"></path>
	<path class="st0 VJqUrThS_3" d="M244.31,67.92h-31.83l-10.16,19.8h-15.54l45.91-85.05h12.97l16.47,85.05h-14.49L244.31,67.92z M218.55,56.01
		h23.83l-5.78-35.16L218.55,56.01z"></path>
	<path class="st0 VJqUrThS_4" d="M308.63,55.01h-16.24l-5.72,32.71h-14.43l14.78-85.05l26.81,0.06c9.23,0,16.3,2.22,21.2,6.67
		c4.91,4.44,7.03,10.62,6.37,18.53c-0.43,5.5-2.26,10.26-5.49,14.29c-3.23,4.03-7.77,7.2-13.61,9.5l12.56,35.12l-0.06,0.88h-15.3
		L308.63,55.01z M294.37,43.1l13.96,0.12c5.02,0,9.22-1.31,12.59-3.94c3.37-2.63,5.34-6.2,5.93-10.72c0.58-4.4-0.2-7.78-2.34-10.13
		c-2.14-2.36-5.39-3.61-9.75-3.77l-15.42-0.06L294.37,43.1z"></path>
	<path class="st0 VJqUrThS_5" d="M395.14,67.92H363.3l-10.16,19.8H337.6l45.91-85.05h12.97l16.47,85.05h-14.49L395.14,67.92z M369.37,56.01
		h23.83l-5.78-35.16L369.37,56.01z"></path>
	<path class="st0 VJqUrThS_6" d="M487.78,76.69c-3.12,4.05-7.52,7.12-13.2,9.2c-5.69,2.08-12.03,3.09-19.04,3.01
		c-5.61-0.04-10.55-1.29-14.84-3.77c-4.28-2.47-7.68-6.08-10.19-10.81s-3.94-10.11-4.29-16.15c-0.27-4.67,0.21-10.63,1.46-17.87
		s3.48-13.68,6.69-19.31c3.21-5.63,7.12-10.04,11.71-13.23c6.23-4.32,13.36-6.41,21.38-6.25c8.53,0.16,15.2,2.61,20.01,7.36
		c4.81,4.75,7.53,11.41,8.15,19.98l-13.96-0.06c-0.86-9.97-5.71-15.09-14.54-15.36c-6.62-0.19-12.06,2.13-16.33,6.97
		c-4.26,4.84-7.18,11.83-8.73,20.96c-0.9,5.33-1.38,9.68-1.46,13.06c-0.23,6.96,1.04,12.44,3.83,16.44c2.78,4,6.84,6.05,12.18,6.12
		c6.81,0.16,12.42-1.53,16.82-5.07l3.15-16.6h-17.06l1.99-11.22h31.25L487.78,76.69z"></path>
	<path class="st0 VJqUrThS_7" d="M576.62,2.68l-9.64,56.84c-1.32,9.07-5.21,16.3-11.65,21.67c-6.45,5.37-14.24,7.98-23.39,7.83
		c-8.49-0.16-15.2-2.73-20.12-7.71c-4.93-4.98-7.18-11.49-6.75-19.51l0.18-2.22l9.64-56.89h14.37l-9.64,56.95
		c-0.7,5.41,0.1,9.64,2.39,12.68s5.84,4.63,10.63,4.79c5.26,0.16,9.64-1.27,13.14-4.26c3.5-3,5.74-7.3,6.72-12.91l9.75-57.25H576.62
		z"></path>
	<path class="st0 VJqUrThS_8" d="M626.22,67.92h-31.83l-10.16,19.8h-15.54l45.91-85.05h12.97l16.47,85.05h-14.49L626.22,67.92z M600.46,56.01
		h23.83l-5.78-35.16L600.46,56.01z"></path>
</g>
<style data-made-with="vivus-instant">.VJqUrThS_0{stroke-dasharray:487 489;stroke-dashoffset:488;animation:VJqUrThS_draw_0 5400ms ease-in-out 0ms infinite,VJqUrThS_fade 5400ms linear 0ms infinite;}.VJqUrThS_1{stroke-dasharray:202 204;stroke-dashoffset:203;animation:VJqUrThS_draw_1 5400ms ease-in-out 0ms infinite,VJqUrThS_fade 5400ms linear 0ms infinite;}.VJqUrThS_2{stroke-dasharray:390 392;stroke-dashoffset:391;animation:VJqUrThS_draw_2 5400ms ease-in-out 0ms infinite,VJqUrThS_fade 5400ms linear 0ms infinite;}.VJqUrThS_3{stroke-dasharray:400 402;stroke-dashoffset:401;animation:VJqUrThS_draw_3 5400ms ease-in-out 0ms infinite,VJqUrThS_fade 5400ms linear 0ms infinite;}.VJqUrThS_4{stroke-dasharray:447 449;stroke-dashoffset:448;animation:VJqUrThS_draw_4 5400ms ease-in-out 0ms infinite,VJqUrThS_fade 5400ms linear 0ms infinite;}.VJqUrThS_5{stroke-dasharray:400 402;stroke-dashoffset:401;animation:VJqUrThS_draw_5 5400ms ease-in-out 0ms infinite,VJqUrThS_fade 5400ms linear 0ms infinite;}.VJqUrThS_6{stroke-dasharray:458 460;stroke-dashoffset:459;animation:VJqUrThS_draw_6 5400ms ease-in-out 0ms infinite,VJqUrThS_fade 5400ms linear 0ms infinite;}.VJqUrThS_7{stroke-dasharray:411 413;stroke-dashoffset:412;animation:VJqUrThS_draw_7 5400ms ease-in-out 0ms infinite,VJqUrThS_fade 5400ms linear 0ms infinite;}.VJqUrThS_8{stroke-dasharray:400 402;stroke-dashoffset:401;animation:VJqUrThS_draw_8 5400ms ease-in-out 0ms infinite,VJqUrThS_fade 5400ms linear 0ms infinite;}@keyframes VJqUrThS_draw{100%{stroke-dashoffset:0;}}@keyframes VJqUrThS_fade{0%{stroke-opacity:1;}92.5925925925926%{stroke-opacity:1;}100%{stroke-opacity:0;}}@keyframes VJqUrThS_draw_0{14.814814814814813%{stroke-dashoffset: 488}37.03703703703704%{ stroke-dashoffset: 0;}100%{ stroke-dashoffset: 0;}}@keyframes VJqUrThS_draw_1{14.814814814814813%{stroke-dashoffset: 203}37.03703703703704%{ stroke-dashoffset: 0;}100%{ stroke-dashoffset: 0;}}@keyframes VJqUrThS_draw_2{14.814814814814813%{stroke-dashoffset: 391}37.03703703703704%{ stroke-dashoffset: 0;}100%{ stroke-dashoffset: 0;}}@keyframes VJqUrThS_draw_3{14.814814814814813%{stroke-dashoffset: 401}37.03703703703704%{ stroke-dashoffset: 0;}100%{ stroke-dashoffset: 0;}}@keyframes VJqUrThS_draw_4{14.814814814814813%{stroke-dashoffset: 448}37.03703703703704%{ stroke-dashoffset: 0;}100%{ stroke-dashoffset: 0;}}@keyframes VJqUrThS_draw_5{14.814814814814813%{stroke-dashoffset: 401}37.03703703703704%{ stroke-dashoffset: 0;}100%{ stroke-dashoffset: 0;}}@keyframes VJqUrThS_draw_6{14.814814814814813%{stroke-dashoffset: 459}37.03703703703704%{ stroke-dashoffset: 0;}100%{ stroke-dashoffset: 0;}}@keyframes VJqUrThS_draw_7{14.814814814814813%{stroke-dashoffset: 412}37.03703703703704%{ stroke-dashoffset: 0;}100%{ stroke-dashoffset: 0;}}@keyframes VJqUrThS_draw_8{14.814814814814813%{stroke-dashoffset: 401}37.03703703703704%{ stroke-dashoffset: 0;}100%{ stroke-dashoffset: 0;}}</style></svg>
