<svg width="586" height="586" viewBox="0 0 586 586" fill="none" xmlns="http://www.w3.org/2000/svg">
<path d="M511.573 487.733C559.595 434.228 586.052 364.801 585.819 292.907C585.819 215.224 554.959 140.72 500.027 85.7867C445.095 30.8547 370.589 0 292.907 0C215.224 0 140.72 30.86 85.7867 85.792C30.86 140.724 0 215.229 0 292.912C0 370.595 30.864 445.099 85.792 500.032C140.724 554.959 215.229 585.819 292.912 585.819H566.299C571.538 585.819 576.564 583.709 580.236 579.965C583.908 576.225 585.923 571.162 585.819 565.918C585.72 560.673 583.517 555.694 579.705 552.095L511.573 487.733ZM136.693 351.48C121.157 351.48 106.256 345.308 95.272 334.319C84.2824 323.334 78.1107 308.433 78.1107 292.897C78.1107 277.361 84.2825 262.46 95.272 251.476C106.256 240.486 121.157 234.315 136.693 234.315C152.229 234.315 167.131 240.487 178.115 251.476C189.104 262.46 195.276 277.361 195.276 292.897C195.255 308.428 189.078 323.319 178.099 334.304C167.114 345.283 152.224 351.465 136.692 351.481L136.693 351.48ZM292.907 351.48C277.371 351.48 262.469 345.308 251.485 334.319C240.496 323.334 234.324 308.433 234.324 292.897C234.324 277.361 240.496 262.46 251.485 251.476C262.47 240.486 277.371 234.315 292.907 234.315C308.443 234.315 323.344 240.487 334.328 251.476C345.318 262.46 351.489 277.361 351.489 292.897C351.474 308.428 345.291 323.319 334.312 334.304C323.328 345.283 308.437 351.465 292.905 351.481L292.907 351.48ZM449.12 351.48C433.584 351.48 418.683 345.308 407.699 334.319C396.709 323.334 390.537 308.433 390.537 292.897C390.537 277.361 396.709 262.46 407.699 251.476C418.683 240.486 433.584 234.315 449.12 234.315C464.656 234.315 479.557 240.487 490.547 251.476C501.531 262.46 507.703 277.361 507.703 292.897C507.687 308.428 501.51 323.319 490.525 334.304C479.541 345.283 464.651 351.465 449.119 351.481L449.12 351.48ZM468.647 292.896C468.647 298.073 466.589 303.042 462.928 306.703C459.266 310.364 454.303 312.421 449.121 312.421C443.944 312.421 438.975 310.364 435.315 306.703C431.653 303.041 429.596 298.072 429.596 292.896C429.596 287.72 431.653 282.75 435.315 279.089C438.976 275.428 443.945 273.371 449.121 273.371C454.298 273.376 459.262 275.433 462.924 279.095C466.585 282.756 468.643 287.72 468.648 292.897L468.647 292.896ZM312.433 292.896C312.433 298.073 310.376 303.042 306.715 306.703C303.053 310.364 298.084 312.421 292.908 312.421C287.731 312.421 282.762 310.364 279.101 306.703C275.44 303.041 273.382 298.072 273.382 292.896C273.382 287.72 275.44 282.75 279.101 279.089C282.763 275.428 287.731 273.371 292.908 273.371C298.085 273.376 303.049 275.433 306.711 279.095C310.372 282.756 312.429 287.72 312.435 292.897L312.433 292.896ZM156.22 292.896C156.22 298.073 154.163 303.042 150.501 306.703C146.84 310.364 141.871 312.421 136.695 312.421C131.517 312.421 126.549 310.364 122.888 306.703C119.226 303.041 117.169 298.072 117.169 292.896C117.169 287.72 119.226 282.75 122.888 279.089C126.549 275.428 131.518 273.371 136.695 273.371C141.872 273.376 146.835 275.433 150.497 279.095C154.153 282.756 156.216 287.72 156.221 292.897L156.22 292.896Z" fill="black"/>
</svg>
